<svg width="68" height="56" viewBox="0 0 68 56" fill="none" xmlns="http://www.w3.org/2000/svg">
<path d="M57.6024 4.67051C53.1429 2.45998 48.425 0.889302 43.5736 0C42.9693 1.15743 42.2633 2.71417 41.7764 3.95264C36.5457 3.1194 31.3631 3.1194 26.2286 3.95264C25.742 2.71445 25.02 1.15743 24.4101 0C19.5539 0.889712 14.8321 2.46439 10.3705 4.68205C1.49226 18.8956 -0.914565 32.7558 0.288716 46.4198C6.17736 51.0785 11.884 53.9086 17.4946 55.7605C18.8889 53.7291 20.1215 51.5784 21.1796 49.3307C19.1652 48.5182 17.2232 47.5169 15.3767 46.3387C15.8627 45.9572 16.3371 45.5595 16.7994 45.1464C27.9881 50.6907 40.1452 50.6907 51.2005 45.1464C51.6649 45.5568 52.1392 45.9544 52.6229 46.3387C50.7736 47.52 48.8279 48.5233 46.8095 49.3366C47.8736 51.5934 49.1039 53.7462 50.4945 55.7662C56.1103 53.9145 61.8223 51.0844 67.711 46.4198C69.123 30.5799 65.2991 16.8467 57.6024 4.67023V4.67051ZM22.704 38.0167C19.3452 38.0167 16.5907 34.6947 16.5907 30.6494C16.5907 26.6042 19.2865 23.2766 22.704 23.2766C26.1218 23.2766 28.8761 26.5983 28.8174 30.6494C28.8227 34.6947 26.1218 38.0167 22.704 38.0167ZM45.2957 38.0167C41.9369 38.0167 39.1826 34.6947 39.1826 30.6494C39.1826 26.6042 41.8782 23.2766 45.2957 23.2766C48.7135 23.2766 51.4677 26.5983 51.409 30.6494C51.409 34.6947 48.7135 38.0167 45.2957 38.0167Z" fill="#5865F2"/>
</svg>
