<svg width="68" height="56" viewBox="0 0 68 56" fill="none" xmlns="http://www.w3.org/2000/svg">
<path d="M68 6.81959C65.4537 7.95748 62.7528 8.70439 59.9872 9.03548C62.8679 7.29385 65.0797 4.53592 66.1212 1.24987C63.3828 2.8891 60.3867 4.04405 57.2624 4.6648C54.7174 1.92991 51.0919 0.220703 47.0791 0.220703C39.3744 0.220703 33.1277 6.52164 33.1277 14.293C33.1277 15.3962 33.2512 16.4701 33.4889 17.5003C21.8944 16.9133 11.6147 11.3108 4.7337 2.7967C3.53308 4.87513 2.84511 7.29278 2.84511 9.87146C2.84511 14.7539 5.30825 19.0611 9.05144 21.5848C6.83599 21.5148 4.66929 20.9113 2.73222 19.8245C2.73142 19.8834 2.73142 19.9424 2.73142 20.0016C2.73142 26.8199 7.5403 32.5078 13.9222 33.8006C11.8678 34.3642 9.71292 34.4467 7.62211 34.0418C9.39728 39.6326 14.5496 43.7011 20.6542 43.815C15.8796 47.5892 9.86399 49.8391 3.32802 49.8391C2.20177 49.8391 1.09145 49.7724 0 49.6424C6.17392 53.6353 13.507 55.9651 21.3855 55.9651C47.0467 55.9651 61.0789 34.5214 61.0789 15.9251C61.0789 15.3147 61.0656 14.7078 61.0385 14.1044C63.7697 12.1128 66.1271 9.64589 68 6.81959Z" fill="#55ACEE"/>
</svg>
